<?xml version="1.0" encoding="UTF-8"?>
<svg width="202px" height="90px" viewBox="0 0 202 90" version="1.1" xmlns="http://www.w3.org/2000/svg" xmlns:xlink="http://www.w3.org/1999/xlink">
    <!-- Generator: Sketch 64 (93537) - https://sketch.com -->
    <title>Group</title>
    <desc>Created with Sketch.</desc>
    <g id="Page-1" stroke="none" stroke-width="1" fill="none" fill-rule="evenodd">
        <g id="Tablet" transform="translate(-283.000000, -467.000000)" fill="#6FADC6" fill-rule="nonzero">
            <g id="Group" transform="translate(283.000000, 467.000000)">
                <path d="M29.6,77.3 C29.5,77.4 29.4,77.4 29.4,77.4 C29.3,77.4 29.2,77.4 28.9,77.5 C28.3,77.6 27.7,77.6 26.9,77.6 C26.1,77.5 25.3,77.5 24.6,77.3 C23.8,77.2 23.2,77 22.6,76.7 C22,76.5 21.7,76.2 21.5,76 C21.4,75.4 21.2,74.9 21.1,74.2 C21,73.6 20.9,73 20.8,72.4 C20,67.8 19.5,63 19.3,57.9 C19.1,52.8 19.3,47.2 19.8,41.2 C19.9,40.6 19.9,39.8 19.9,38.9 C19.9,38 20,37 20,36 C19.2,36.9 18.2,38.4 17.2,40.3 C16.2,42.2 15.1,44.5 14,47 C12.9,49.6 11.9,52.3 10.9,55.4 C9.9,58.4 9,61.4 8.3,64.5 C7.6,67.6 7,70.5 6.6,73.4 C6.2,76.3 6.1,79 6.3,81.4 C4.2,81.2 2.8,80.8 1.9,80.4 C1,80 0.5,79.3 0.4,78.5 C0.3,77.8 0.3,76.7 0.5,75.3 C0.7,73.9 1.1,72.2 1.6,70.2 C2.1,68.2 2.7,66 3.5,63.5 C4.3,61 5.2,58.4 6.1,55.5 C7.2,52.2 8.3,49.2 9.4,46.3 C10.5,43.4 11.6,40.8 12.8,38.4 C13.9,36 15.1,33.9 16.3,32.1 C17.5,30.3 18.7,28.9 20,27.8 C20.6,27.7 21.4,27.7 22.4,27.8 C23.4,27.9 24.4,28.1 25.4,28.3 C26.4,28.5 27.3,28.8 28.1,29.1 C28.9,29.4 29.3,29.7 29.5,30 C29.1,31.2 28.8,33.1 28.4,35.5 C28,37.9 27.7,40.6 27.4,43.7 C27.1,46.7 26.9,49.9 26.8,53.3 C26.7,56.7 26.6,59.9 26.8,62.9 C27.3,60.5 28,58 28.8,55.3 C29.6,52.7 30.5,50 31.5,47.4 C32.5,44.8 33.5,42.2 34.5,39.7 C35.5,37.2 36.6,34.9 37.7,32.8 C38.8,30.7 39.8,28.9 40.7,27.3 C41.7,25.7 42.5,24.5 43.4,23.7 C44,23.6 44.8,23.6 45.8,23.7 C46.8,23.8 47.8,24 48.8,24.2 C49.8,24.4 50.7,24.7 51.5,25 C52.3,25.3 52.7,25.6 52.9,25.9 C52,28.4 51.4,31.5 51,35 C50.6,38.5 50.4,42.2 50.4,45.9 C50.4,49.7 50.5,53.4 50.8,57.1 C51.1,60.8 51.5,64 52,66.9 C52.2,67.8 52.3,68.8 52.5,69.8 C52.7,70.8 52.9,71.9 53.2,73 C52.6,73.1 51.9,73.1 51.1,73.1 C50.3,73.1 49.5,73 48.7,72.9 C47.9,72.8 47.2,72.6 46.5,72.4 C45.8,72.2 45.3,71.9 45,71.6 C44.9,71 44.7,70.5 44.6,69.8 C44.5,69.1 44.4,68.6 44.3,68 C43.5,63.4 43,58.6 42.8,53.5 C42.6,48.4 42.8,42.8 43.3,36.8 C43.4,36.2 43.4,35.4 43.4,34.4 C43.4,33.4 43.5,32.3 43.5,31.2 C42.5,32 41.4,33.3 40.2,35.2 C39,37.1 37.9,39.3 36.8,41.8 C35.7,44.4 34.7,47.2 33.8,50.2 C32.9,53.3 32.1,56.4 31.4,59.5 C30.8,62.6 30.3,65.7 30,68.7 C29.3,72.1 29.3,74.8 29.6,77.3 Z" id="Path"></path>
                <path d="M82.3,53.6 C81.9,56.7 81.4,59.6 80.9,62.2 C80.4,64.8 79.8,67.2 79.1,69.5 C78.4,71.7 77.6,73.8 76.7,75.8 C75.8,77.7 74.7,79.6 73.5,81.4 C72,83.7 70.3,85.5 68.5,86.9 C66.7,88.3 64.8,89.2 62.8,89.5 C61.8,89.7 60.8,89.7 59.7,89.7 C58.7,89.7 57.7,89.5 56.7,89.3 C55.8,89.1 54.9,88.8 54.1,88.4 C53.3,88 52.8,87.6 52.4,87 C52.3,86.5 52.5,86 53,85.6 C53.6,86 54,86.2 54.4,86.4 C54.8,86.6 55.1,86.7 55.5,86.8 C55.8,86.9 56.2,87 56.5,86.9 C56.9,86.9 57.3,86.8 57.7,86.8 C60,86.4 62.2,85.3 64.1,83.6 C66.1,81.8 67.8,79.5 69.4,76.7 C70.9,73.8 72.2,70.5 73.2,66.6 C74.2,62.8 74.9,58.5 75.2,53.9 C74.8,54.8 74.3,55.9 73.8,57.2 C73.3,58.5 72.6,59.8 71.9,61.2 C71.2,62.5 70.4,63.7 69.6,64.8 C68.8,65.9 67.9,66.7 67,67.2 C66.3,67.3 65.6,67.3 64.9,67.2 C64.1,67.1 63.4,66.9 62.7,66.6 C62,66.3 61.4,65.9 60.8,65.4 C60.2,64.9 59.8,64.3 59.5,63.6 C59.3,62.4 59.2,61.5 59.1,60.7 C59.1,60 59.1,59.2 59.1,58.3 C59.2,56.7 59.4,54.8 59.8,52.8 C60.2,50.8 60.7,48.6 61.3,46.6 C61.9,44.6 62.7,42.6 63.5,40.7 C64.4,38.8 65.4,37.3 66.4,36.2 C66.7,36.1 67.1,36.1 67.6,36.1 C68.1,36.1 68.6,36.1 69.2,36.2 C69.8,36.3 70.3,36.4 70.8,36.5 C71.3,36.6 71.8,36.9 72.2,37.2 C71.8,37.7 71.1,39.2 70,41.8 C68.9,44.4 67.8,48 66.8,52.7 C66.7,53.2 66.5,53.9 66.4,54.8 C66.3,55.7 66.1,56.6 66.1,57.6 C66,58.6 65.9,59.5 65.9,60.5 C65.9,61.4 65.9,62.2 66,62.7 C66.1,63 66.2,63.3 66.3,63.4 C66.4,63.5 66.5,63.7 66.6,63.7 C67.3,63.4 68.2,62.7 69.2,61.4 C70.2,60.1 71.3,58.2 72.5,55.6 C73.2,54 73.9,52.3 74.4,50.8 C75,49.2 75.5,47.6 76,46 C76.5,44.4 77.1,42.7 77.7,41 C78.3,39.3 78.9,37.6 79.6,35.8 C80.1,35.7 80.7,35.7 81.3,35.7 C81.9,35.7 82.5,35.8 83.2,35.8 C83.8,35.9 84.3,36 84.8,36.1 C85.3,36.2 85.6,36.4 85.9,36.6 C85.1,39.5 84.4,42.3 83.7,45.1 C83.2,47.9 82.6,50.7 82.3,53.6 Z" id="Path"></path>
                <path d="M126.9,20.8 C127.3,23.3 127,25.7 126,27.9 C125,30.1 123.4,32.1 121.2,33.8 C122.9,34.6 124.4,35.7 125.6,37 C126.8,38.4 127.5,40 127.9,41.8 C128.3,44 128,46.3 127.1,48.7 C126.2,51.1 124.7,53.3 122.8,55.3 C120.9,57.3 118.6,59.1 116,60.6 C113.4,62.1 110.6,63.1 107.7,63.6 C104.5,64.2 101.6,64 99,63.3 C96.4,62.5 94.2,61.1 92.5,59.2 C92.7,57.9 93,56.3 93.3,54.4 C93.7,52.5 94.1,50.4 94.5,48.3 C95,46.1 95.4,44 95.9,41.8 C96.4,39.7 96.9,37.7 97.3,36 C98.2,32.3 99.1,29.2 99.9,26.7 C100.7,24.2 101.5,22.2 102.3,20.7 C100.2,21.8 98.3,22.9 96.6,24.1 C94.9,25.3 93.7,26.4 93,27.3 C92.6,27.1 92.1,26.8 91.7,26.4 C91.2,26 90.8,25.5 90.3,25 C89.8,24.5 89.5,23.9 89.1,23.3 C88.8,22.7 88.5,22.2 88.4,21.7 C89.3,20.8 90.6,19.8 92.2,18.9 C93.8,17.9 95.5,17 97.4,16.2 C99.3,15.4 101.3,14.6 103.3,14 C105.3,13.3 107.3,12.8 109.2,12.5 C114.1,11.6 118.1,11.9 121.2,13.4 C124.4,14.8 126.3,17.3 126.9,20.8 Z M106.2,39.4 C105.4,39.2 104.6,38.7 103.8,38.1 C103.2,40.3 102.7,42.5 102.2,44.7 C101.7,46.8 101.3,48.8 101,50.6 C100.7,52.4 100.4,54 100.2,55.3 C100,56.6 100,57.6 100,58.2 C100.6,58.4 101.4,58.5 102.2,58.6 C103,58.6 104,58.5 105.2,58.3 C108,57.8 110.5,57 112.9,55.7 C115.3,54.5 117.3,53 119,51.4 C120.7,49.7 121.9,48 122.8,46 C123.6,44.1 123.9,42.2 123.6,40.3 C123.1,37.6 121.6,35.9 119.1,35.1 C116.2,37 112.7,38.2 108.7,38.9 C108.1,39 107.7,39.1 107.4,39.1 C107,39.4 106.6,39.5 106.2,39.4 Z M114.3,16.2 C113.4,16.4 112.5,16.6 111.6,16.8 C110.7,17.1 109.7,17.4 108.7,17.8 C108.9,17.9 109.1,18.1 109.2,18.2 C109.3,18.4 109.5,18.5 109.6,18.7 C109.3,19.3 109,20 108.6,21.1 C108.2,22.1 107.8,23.3 107.4,24.7 C107,26.1 106.5,27.6 106.1,29.2 C105.7,30.8 105.2,32.5 104.8,34.2 C105.5,33.9 106.3,33.6 107.3,33.4 C108.3,33.1 109.3,32.9 110.2,32.7 C110.7,32.6 111.3,32.5 111.8,32.5 C112.3,32.5 112.8,32.4 113.3,32.4 C115.2,31.7 116.9,30.9 118.3,30 C119.8,29.1 121,28.1 122,27.1 C123,26.1 123.7,25 124.1,23.9 C124.5,22.8 124.6,21.6 124.4,20.5 C124.1,18.5 123,17.2 121.3,16.5 C119.6,15.8 117.3,15.7 114.3,16.2 Z" id="Shape"></path>
                <path d="M134.6,50.1 C134.3,48.3 134.3,45.7 134.6,42.3 C134.9,38.9 135.4,34.9 136.2,30.3 C137.5,23 138.9,16.8 140.3,11.9 C141.7,6.9 143.2,3 144.9,5.32907052e-15 C145.4,5.32907052e-15 146,0.1 146.8,0.3 C147.6,0.5 148.3,0.7 149.1,1 C149.9,1.3 150.6,1.6 151.2,1.9 C151.8,2.2 152.2,2.5 152.4,2.7 C149.9,7 147.8,11.5 146.2,16.3 C144.6,21 143.2,26.4 142.2,32.3 C141.3,37.4 140.8,42 140.6,46 C140.4,50 140.5,53.3 141,55.9 C141.1,56.6 141.2,57 141.2,57.2 C141.2,57.4 141.3,57.5 141.3,57.7 C140.7,57.7 140.2,57.7 139.8,57.5 C139.4,57.4 139,57.2 138.9,56.9 C138.8,56.7 138.5,56.5 138.1,56.1 C137.7,55.8 137.3,55.5 137,55.4 C136.6,55.2 136.2,54.6 135.7,53.6 C135.2,52.6 134.8,51.4 134.6,50.1 Z" id="Path"></path>
                <path d="M158.6,52.1 C156.2,52.3 154.2,51.6 152.5,50 C150.8,48.5 149.7,46.3 149.2,43.5 C148.9,41.9 148.9,40.1 149,38.3 C149.2,36.5 149.6,34.6 150.2,32.8 C150.8,31 151.6,29.2 152.6,27.6 C153.6,25.9 154.7,24.4 155.9,23.1 C157.8,21 159.8,19.8 161.7,19.5 C163.1,20 164.7,21.2 166.3,23.2 C166.5,23.2 166.7,23.1 166.8,23.1 C167,23.1 167.1,23 167.3,23 C169.5,22.6 170.9,24.3 171.5,28.2 C172,30.8 172,33.3 171.5,35.7 C171.1,38.1 170.3,40.4 169.1,42.6 C167.9,44.7 166.5,46.6 164.6,48.3 C163,49.8 161,51.1 158.6,52.1 Z M158.3,32.3 C157.8,33.4 157.3,34.5 156.9,35.7 C156.5,36.9 156.1,38.1 155.9,39.3 C155.6,40.5 155.5,41.6 155.4,42.7 C155.3,43.8 155.4,44.7 155.5,45.5 C155.7,46.5 156,47.4 156.5,48.2 C157,49 157.4,49.5 157.9,49.5 C159.7,48.8 161.2,47.7 162.5,46.3 C163.8,44.9 164.9,43.3 165.7,41.4 C166.5,39.5 167.1,37.5 167.3,35.3 C167.6,33.1 167.5,30.8 167.1,28.4 C166.9,27.3 166.7,26.5 166.5,25.9 C166.3,25.3 166,24.8 165.6,24.4 C163.9,25.2 162.5,26.4 161.3,27.8 C160.1,29.3 159.1,30.8 158.3,32.3 Z" id="Shape"></path>
                <path d="M170.3,66.5 C170.3,66.3 170.3,66 170.4,65.8 C170.5,65.6 170.7,65.3 170.8,65.1 C171.4,65.5 171.8,65.7 172.2,65.9 C172.6,66.1 173,66.2 173.3,66.3 C173.6,66.4 174,66.5 174.3,66.4 C174.6,66.4 175,66.3 175.5,66.3 C177.6,65.9 179.5,65 181.2,63.6 C182.9,62.2 184.4,60.2 185.7,57.8 C187,55.4 188.1,52.5 188.9,49.2 C189.7,45.9 190.4,42.2 190.7,38.2 C190.3,38.8 189.8,39.4 189.2,40.1 C188.6,40.8 187.9,41.5 187.3,42.2 C186.6,42.9 185.9,43.5 185.3,44.1 C184.6,44.7 184,45.1 183.5,45.4 C182.8,45.4 182.1,45.2 181.4,44.9 C180.7,44.5 180.1,44 179.5,43.4 C178.9,42.8 178.4,42.1 178,41.2 C177.6,40.4 177.3,39.5 177.1,38.5 C176.8,36.9 176.8,35.2 177.1,33.5 C177.4,31.7 177.9,30 178.6,28.2 C179.3,26.4 180.2,24.7 181.2,23 C182.3,21.3 183.5,19.9 184.8,18.5 C186.1,17.2 187.5,16.1 188.9,15.2 C190.3,14.3 191.8,13.7 193.2,13.5 C194.6,13.2 195.7,13.4 196.6,13.8 C197.4,14.3 198.1,15.2 198.7,16.5 C198.2,16.3 197.6,16.3 196.9,16.4 C195.9,16.6 194.9,17.2 193.7,18.2 C192.6,19.2 191.4,20.4 190.3,21.9 C189.2,23.4 188.1,25 187.1,26.9 C186.1,28.7 185.2,30.6 184.5,32.4 C183.8,34.2 183.3,36 182.9,37.7 C182.5,39.4 182.5,40.9 182.7,42.1 C182.7,42.4 182.8,42.6 182.9,42.6 C183,42.7 183,42.7 183.1,42.7 C183.5,42.6 183.9,42.3 184.5,41.8 C185.1,41.3 185.7,40.6 186.4,39.9 C187.1,39.1 187.8,38.3 188.5,37.3 C189.2,36.3 189.9,35.3 190.5,34.3 C191.9,32 193.1,29.6 194.1,26.9 C195.1,24.2 195.9,21.7 196.3,19.2 C197.4,19.1 198.4,19.1 199.3,19.2 C200.2,19.3 200.8,19.5 201.2,19.8 C200.4,23.2 199.7,26.1 199.3,28.4 C198.8,30.7 198.5,32.7 198.1,34.5 C197.5,37.6 197,40.5 196.4,43.1 C195.9,45.7 195.3,48.1 194.7,50.3 C194.1,52.5 193.3,54.6 192.5,56.6 C191.7,58.6 190.6,60.5 189.5,62.4 C188.9,63.3 188.3,64.1 187.5,64.9 C186.7,65.6 185.9,66.3 185.1,66.9 C184.3,67.5 183.4,67.9 182.6,68.3 C181.8,68.7 181,68.9 180.2,69 C179.2,69.2 178.2,69.2 177.1,69.2 C176,69.2 175,69 174.1,68.8 C173.2,68.6 172.3,68.3 171.6,67.9 C171.2,67.5 170.7,67.1 170.3,66.5 Z" id="Path"></path>
            </g>
        </g>
    </g>
</svg>